# xmcd CD database file
#
# Track frame offsets:
#	225
#	19952
#	46040
#	67486
#	87321
#	106146
#	125358
#	145409
#	163536
#	186552
#	203339
#	219438
#	250853
#	264471
#	282542
#
# Disc length: 4129 seconds
#
# Revision: 0
# Processed by: cddbd v1.5.1PL0 Copyright (c) Steve Scherf et al.
# Submitted via: CDex 1.51
#
DISCID=e2101e0f
DTITLE=Jaxon Wu - Living On Light
DYEAR=1999
DGENRE=New Age
TTITLE0=Living on light
TTITLE1=Master of creation
TTITLE2=One heartbeat
TTITLE3=Awaken
TTITLE4=Hear my cry, Oh God
TTITLE5=Beloved One
TTITLE6=I Am Thine
TTITLE7=I Am That I Am
TTITLE8=Love Is The Answer
TTITLE9=I Believe In The People
TTITLE10=Seed Of Love - An Invocation To Spring
TTITLE11=We Shall Lift Each Other Up
TTITLE12=I Offer Myself
TTITLE13=I Give Thanks
TTITLE14=El Amigo
EXTD=YEAR: 1999
EXTT0=
EXTT1=
EXTT2=
EXTT3=
EXTT4=
EXTT5=
EXTT6=
EXTT7=
EXTT8=
EXTT9=
EXTT10=
EXTT11=
EXTT12=
EXTT13=
EXTT14=
PLAYORDER=
